<svg width="16" height="16" viewBox="0 0 16 16" fill="none" xmlns="http://www.w3.org/2000/svg">
<path d="M11.9039 8.49553L4.42571 1.18281L3.74875 4.46782L3.01699 7.86709C2.99853 7.95225 2.99999 8.0409 3.02123 8.12621C3.04248 8.21151 3.08296 8.29119 3.13954 8.3591C3.19612 8.427 3.26729 8.48131 3.34756 8.51785C3.42784 8.55438 3.51506 8.57215 3.60252 8.5698H6.36252L5.45266 15.3398C5.4363 15.4653 5.46232 15.5935 5.52663 15.7042C5.59093 15.8149 5.68985 15.9017 5.80778 15.9511C5.88101 15.9806 5.95887 15.9961 6.03727 15.9968C6.12453 15.9966 6.21019 15.9764 6.28766 15.9378C6.36514 15.8991 6.43238 15.8431 6.48423 15.774L10.2013 10.7865L11.9039 8.49553ZM11.9039 8.49553L13.7179 6.06176C13.7763 5.98058 13.8118 5.88494 13.8209 5.78459C13.8299 5.68423 13.8121 5.58275 13.7693 5.49046C13.7243 5.38896 13.6511 5.30206 13.5586 5.24023C13.4662 5.17839 13.3583 5.14427 13.248 5.14196L10.5337 5.14196L11.4445 0.697198C11.4618 0.612884 11.4596 0.525376 11.4381 0.441262C11.4166 0.357148 11.3764 0.27862 11.3205 0.211587C11.2642 0.143778 11.1933 0.089467 11.1133 0.0528239C11.0333 0.0161808 10.9464 -0.00181983 10.8591 0.000204192L5.14484 0.000204192C5.01346 -0.00330556 4.88579 0.0385213 4.78332 0.118644C4.68085 0.198766 4.60984 0.312292 4.58224 0.44011L4.42571 1.18281L11.9039 8.49553Z" fill="#FFE500"/>
</svg>