<svg width="16" height="16" viewBox="0 0 16 16" fill="none" xmlns="http://www.w3.org/2000/svg">
<path d="M15.875 15.0818L0.918125 0.124957L0.125 0.918082L3.725 4.52371L2.9375 7.87058C2.91765 7.95443 2.91733 8.04171 2.93656 8.1257C2.95579 8.20969 2.99406 8.28815 3.04842 8.355C3.10277 8.42186 3.17176 8.47533 3.25006 8.5113C3.32835 8.54727 3.41387 8.56477 3.5 8.56246H6.21688L5.1875 15.2281C5.16892 15.3516 5.19201 15.4779 5.25312 15.5868C5.31423 15.6958 5.40989 15.7814 5.525 15.83C5.5965 15.859 5.67284 15.8742 5.75 15.875C5.8359 15.8747 5.92062 15.8549 5.99765 15.8168C6.07468 15.7788 6.14197 15.7237 6.19438 15.6556L9.95187 10.745L15.0819 15.875L15.875 15.0818ZM11.6731 8.48933L13.5069 6.09308C13.566 6.01315 13.6028 5.91899 13.6137 5.82018C13.6246 5.72137 13.6091 5.62145 13.5687 5.53058C13.5265 5.43065 13.4562 5.34509 13.3663 5.28421C13.2765 5.22333 13.171 5.18973 13.0625 5.18746H10.3906L11.375 0.811207C11.3936 0.728192 11.3932 0.642033 11.3737 0.559216C11.3542 0.476399 11.3162 0.399081 11.2625 0.333082C11.2084 0.266318 11.1397 0.212844 11.0617 0.176766C10.9837 0.140687 10.8984 0.122964 10.8125 0.124957H5.1875C5.05824 0.121501 4.93174 0.162683 4.82929 0.241571C4.72684 0.320458 4.65469 0.432234 4.625 0.558082L4.45625 1.28933L11.6731 8.48933Z" fill="#11203E"/>
</svg>